<?xml version="1.0" encoding="UTF-8" standalone="no"?>
<svg
   width="200px"
   height="200px"
   viewBox="0 0 48 48"
   version="1.1"
   id="svg20"
   sodipodi:docname="bookshelf.svg"
   inkscape:version="1.1.2 (0a00cf5339, 2022-02-04)"
   xmlns:inkscape="http://www.inkscape.org/namespaces/inkscape"
   xmlns:sodipodi="http://sodipodi.sourceforge.net/DTD/sodipodi-0.dtd"
   xmlns="http://www.w3.org/2000/svg"
   xmlns:svg="http://www.w3.org/2000/svg"
   xmlns:rdf="http://www.w3.org/1999/02/22-rdf-syntax-ns#"
   xmlns:cc="http://creativecommons.org/ns#"
   xmlns:dc="http://purl.org/dc/elements/1.1/">
  <defs
     id="defs24">
    <inkscape:path-effect
       effect="fillet_chamfer"
       id="path-effect13776"
       is_visible="true"
       lpeversion="1"
       satellites_param="F,0,0,1,0,0,0,1 @ F,0,0,1,0,0,0,1 @ F,0,0,1,0,0,0,1 @ F,0,0,1,0,0,0,1"
       unit="px"
       method="auto"
       mode="F"
       radius="2"
       chamfer_steps="1"
       flexible="false"
       use_knot_distance="true"
       apply_no_radius="true"
       apply_with_radius="true"
       only_selected="true"
       hide_knots="false" />
    <inkscape:path-effect
       effect="fillet_chamfer"
       id="path-effect7451"
       is_visible="true"
       lpeversion="1"
       satellites_param="F,0,0,1,0,2,0,1 @ F,0,0,1,0,2,0,1 @ F,0,0,1,0,2,0,1 @ F,0,0,1,0,2,0,1"
       unit="px"
       method="auto"
       mode="F"
       radius="2"
       chamfer_steps="1"
       flexible="false"
       use_knot_distance="true"
       apply_no_radius="true"
       apply_with_radius="true"
       only_selected="false"
       hide_knots="false" />
    <inkscape:path-effect
       effect="fillet_chamfer"
       id="path-effect3690"
       is_visible="true"
       lpeversion="1"
       satellites_param="IF,0,0,1,0,0,0,1 @ IF,0,0,1,0,0,0,1 @ IF,0,0,1,0,0,0,1 @ IF,0,0,1,0,0,0,1 @ IF,0,0,1,0,0,0,1 @ IF,0,0,1,0,0,0,1 | IF,0,0,1,0,0,0,1 @ IF,0,0,1,0,0,0,1 @ IF,0,0,1,0,0,0,1 @ IF,0,0,1,0,0,0,1 @ IF,0,0,1,0,0,0,1 @ IF,0,0,1,0,0,0,1 | IF,0,0,1,0,0,0,1 @ IF,0,0,1,0,0,0,1 @ IF,0,0,1,0,0,0,1 @ IF,0,0,1,0,0,0,1 @ IF,0,0,1,0,0,0,1 @ IF,0,0,1,0,0,0,1 | IF,0,0,1,0,0,0,1 @ IF,0,0,1,0,0,0,1 @ IF,0,0,1,0,0,0,1 @ IF,0,0,1,0,0,0,1 @ IF,0,0,1,0,0,0,1 @ IF,0,0,1,0,0,0,1"
       unit="px"
       method="auto"
       mode="F"
       radius="0"
       chamfer_steps="1"
       flexible="false"
       use_knot_distance="true"
       apply_no_radius="true"
       apply_with_radius="true"
       only_selected="false"
       hide_knots="false" />
    <inkscape:path-effect
       effect="fillet_chamfer"
       id="path-effect7451-9"
       is_visible="true"
       lpeversion="1"
       satellites_param="F,0,0,1,0,2,0,1 @ F,0,0,1,0,2,0,1 @ F,0,0,1,0,2,0,1 @ F,0,0,1,0,2,0,1"
       unit="px"
       method="auto"
       mode="F"
       radius="2"
       chamfer_steps="1"
       flexible="false"
       use_knot_distance="true"
       apply_no_radius="true"
       apply_with_radius="true"
       only_selected="false"
       hide_knots="false" />
  </defs>
  <sodipodi:namedview
     id="namedview22"
     pagecolor="#ffffff"
     bordercolor="#666666"
     borderopacity="1.0"
     inkscape:pageshadow="2"
     inkscape:pageopacity="0.0"
     inkscape:pagecheckerboard="0"
     showgrid="true"
     inkscape:zoom="11.313708"
     inkscape:cx="23.29033"
     inkscape:cy="26.737475"
     inkscape:window-width="1366"
     inkscape:window-height="703"
     inkscape:window-x="0"
     inkscape:window-y="0"
     inkscape:window-maximized="1"
     inkscape:current-layer="layer1"
     showguides="true"
     inkscape:guide-bbox="true"
     inkscape:object-nodes="true"
     inkscape:snap-nodes="true">
    <inkscape:grid
       type="xygrid"
       id="grid3692"
       dotted="false"
       snapvisiblegridlinesonly="true"
       empspacing="16"
       units="px"
       spacingy="2"
       spacingx="2" />
    <sodipodi:guide
       position="12,34"
       orientation="1,0"
       id="guide3694" />
    <sodipodi:guide
       position="56,36"
       orientation="0,-1"
       id="guide3696" />
    <sodipodi:guide
       position="2,12"
       orientation="0,-1"
       id="guide3698" />
    <sodipodi:guide
       position="36,4"
       orientation="1,0"
       id="guide3700" />
    <sodipodi:guide
       position="4,34"
       orientation="1,0"
       id="guide6575" />
    <sodipodi:guide
       position="24,44"
       orientation="0,-1"
       id="guide6577" />
    <sodipodi:guide
       position="44,22"
       orientation="1,0"
       id="guide6579" />
    <sodipodi:guide
       position="32,4"
       orientation="0,-1"
       id="guide6581" />
  </sodipodi:namedview>
  <title
     id="title2">70 Basic icons by Xicons.co</title>
  <metadata
     id="metadata841">
    <rdf:RDF>
      <cc:Work
         rdf:about="">
        <dc:title>70 Basic icons by Xicons.co</dc:title>
      </cc:Work>
    </rdf:RDF>
  </metadata>
  <g
     inkscape:groupmode="layer"
     id="layer1"
     inkscape:label="background">
    <circle
       style="fill:#fff0b3;fill-opacity:1;stroke-width:0.08445"
       cx="24"
       cy="24"
       id="circle2"
       r="20" />
  </g>
  <g
     inkscape:groupmode="layer"
     id="layer2"
     inkscape:label="foreground">
    <g
       id="g1483"
       style="fill:#000000;fill-opacity:0.184314"
       transform="translate(7.4192328,4.721995)">
      <path
         style="fill:#000000;fill-opacity:0.184314;stroke-width:0.046875"
         d="m 12,30 c 0,0.720562 -0.589453,1.310109 -1.310015,1.310109 H 5.890829 C 5.170314,31.310015 4.580767,30.720562 4.580767,30 V 9.956067 c 0,-0.720562 0.589547,-1.310062 1.310109,-1.310062 h 4.799202 c 0.720516,0 1.310016,0.5895 1.310016,1.310109 V 30 Z"
         id="path2-5" />
      <path
         style="fill:#000000;fill-opacity:0.184314;stroke-width:0.046875"
         d="m 18.608717,30 c 0,0.720562 -0.589453,1.310109 -1.310109,1.310109 h -3.988546 c -0.720515,0 -1.310109,-0.589453 -1.310109,-1.310109 V 15.395113 c 0,-0.720469 0.589547,-1.310063 1.310109,-1.310063 h 3.988546 c 0.720656,0 1.310109,0.589547 1.310109,1.310063 z"
         id="path12-6" />
      <path
         style="fill:#000000;fill-opacity:0.184314;stroke-width:0.046875"
         d="m 28.536465,28.767188 c 0.186047,0.696 -0.231187,1.417875 -0.92714,1.604062 l -3.34439,0.894328 c -0.696094,0.186187 -1.417969,-0.230953 -1.604109,-0.927 l -4.946999,-18.49659 c -0.186141,-0.696046 0.231094,-1.417874 0.92714,-1.604015 l 3.34439,-0.894422 c 0.696094,-0.186187 1.417969,0.230953 1.604016,0.927 z"
         id="path24-2" />
    </g>
    <path
       style="fill:#00a8e1;stroke-width:0.046875"
       d="m 19.419233,34.021943 c 0,0.720562 -0.589453,1.310109 -1.310015,1.310109 H 13.310062 C 12.589547,35.331958 12,34.742505 12,34.021943 V 13.97801 c 0,-0.720562 0.589547,-1.310062 1.310109,-1.310062 h 4.799202 c 0.720516,0 1.310016,0.5895 1.310016,1.310109 v 20.043886 z"
       id="path2" />
    <g
       id="g8"
       transform="matrix(0.04687499,0,0,0.04687499,12,11.999979)">
      <rect
         y="68.758003"
         style="fill:#0071ce"
         width="158.282"
         height="48.984001"
         id="rect4"
         x="0" />
      <rect
         y="394.255"
         style="fill:#0071ce"
         width="158.282"
         height="48.984001"
         id="rect6"
         x="0" />
    </g>
    <path
       style="fill:#0055b8;stroke-width:0.046875"
       d="m 15.709687,28.102991 c -0.215906,0 -0.390844,-0.174937 -0.390844,-0.390843 v -7.424296 c 0,-0.215906 0.174938,-0.390843 0.390844,-0.390843 0.215906,0 0.390843,0.174937 0.390843,0.390843 v 7.424342 c 0,0.215813 -0.174984,0.390797 -0.390843,0.390797 z"
       id="path10" />
    <path
       style="fill:#0055b8;stroke-width:0.046875"
       d="m 26.02795,34.021943 c 0,0.720562 -0.589453,1.310109 -1.310109,1.310109 h -3.988546 c -0.720515,0 -1.310109,-0.589453 -1.310109,-1.310109 V 19.417056 c 0,-0.720469 0.589547,-1.310063 1.310109,-1.310063 h 3.988546 c 0.720656,0 1.310109,0.589547 1.310109,1.310063 z"
       id="path12" />
    <circle
       style="fill:#ff9e16;stroke-width:0.046875"
       cx="22.723497"
       cy="23.665195"
       r="1.8068434"
       id="circle16" />
    <g
       id="g22"
       transform="matrix(0.04687499,0,0,0.04687499,12,11.999979)">
      <path
         style="fill:#ffffff"
         d="m 264.17,327.119 h -70.8 c -4.606,0 -8.338,-3.732 -8.338,-8.338 0,-4.606 3.732,-8.338 8.338,-8.338 h 70.8 c 4.606,0 8.338,3.732 8.338,8.338 0.001,4.604 -3.732,8.338 -8.338,8.338 z"
         id="path18" />
      <path
         style="fill:#ffffff"
         d="m 264.17,359.211 h -70.8 c -4.606,0 -8.338,-3.733 -8.338,-8.338 0,-4.606 3.732,-8.338 8.338,-8.338 h 70.8 c 4.606,0 8.338,3.732 8.338,8.338 0,4.606 -3.732,8.338 -8.338,8.338 z"
         id="path20" />
    </g>
    <path
       style="fill:#4bb6aa;stroke-width:0.046875"
       d="m 35.955698,32.789131 c 0.186047,0.696 -0.231187,1.417875 -0.92714,1.604062 l -3.34439,0.894328 c -0.696094,0.186187 -1.417969,-0.230953 -1.604109,-0.927 L 25.13306,15.863931 c -0.186141,-0.696046 0.231094,-1.417874 0.92714,-1.604015 l 3.34439,-0.894422 c 0.696094,-0.186187 1.417969,0.230953 1.604016,0.927 z"
       id="path24" />
    <path
       style="fill:#0071ce;stroke-width:0.046875"
       d="m 31.65698,16.716494 -5.875686,1.571296 0.537469,2.00925 5.875545,-1.571297 z m 0.907641,3.393655 -5.875546,1.57125 0.537328,2.009249 5.87564,-1.571296 z"
       id="path26" />
    <g
       id="g32"
       transform="matrix(0.04687499,0,0,0.04687499,12,11.999979)">
      <circle
         style="fill:#ffffff"
         cx="434.034"
         cy="406.45099"
         r="23.608"
         id="circle28" />
      <path
         style="fill:#ffffff"
         d="m 389.432,370.983 c -3.683,0 -7.053,-2.459 -8.049,-6.186 -1.19,-4.449 1.452,-9.02 5.901,-10.209 l 61.306,-16.394 c 4.439,-1.192 9.019,1.452 10.209,5.901 1.19,4.449 -1.452,9.02 -5.901,10.209 l -61.306,16.394 c -0.721,0.193 -1.446,0.285 -2.16,0.285 z"
         id="path30" />
    </g>
    <g
       id="g34"
       transform="matrix(0.04687499,0,0,0.04687499,12,11.999979)" />
    <g
       id="g36"
       transform="matrix(0.04687499,0,0,0.04687499,12,11.999979)" />
    <g
       id="g38"
       transform="matrix(0.04687499,0,0,0.04687499,12,11.999979)" />
    <g
       id="g40"
       transform="matrix(0.04687499,0,0,0.04687499,12,11.999979)" />
    <g
       id="g42"
       transform="matrix(0.04687499,0,0,0.04687499,12,11.999979)" />
    <g
       id="g44"
       transform="matrix(0.04687499,0,0,0.04687499,12,11.999979)" />
    <g
       id="g46"
       transform="matrix(0.04687499,0,0,0.04687499,12,11.999979)" />
    <g
       id="g48"
       transform="matrix(0.04687499,0,0,0.04687499,12,11.999979)" />
    <g
       id="g50"
       transform="matrix(0.04687499,0,0,0.04687499,12,11.999979)" />
    <g
       id="g52"
       transform="matrix(0.04687499,0,0,0.04687499,12,11.999979)" />
    <g
       id="g54"
       transform="matrix(0.04687499,0,0,0.04687499,12,11.999979)" />
    <g
       id="g56"
       transform="matrix(0.04687499,0,0,0.04687499,12,11.999979)" />
    <g
       id="g58"
       transform="matrix(0.04687499,0,0,0.04687499,12,11.999979)" />
    <g
       id="g60"
       transform="matrix(0.04687499,0,0,0.04687499,12,11.999979)" />
    <g
       id="g62"
       transform="matrix(0.04687499,0,0,0.04687499,12,11.999979)" />
  </g>
</svg>
