<?xml version="1.0" encoding="UTF-8" standalone="no"?>
<svg
   xmlns:dc="http://purl.org/dc/elements/1.1/"
   xmlns:cc="http://creativecommons.org/ns#"
   xmlns:rdf="http://www.w3.org/1999/02/22-rdf-syntax-ns#"
   xmlns:svg="http://www.w3.org/2000/svg"
   xmlns="http://www.w3.org/2000/svg"
   xmlns:sodipodi="http://sodipodi.sourceforge.net/DTD/sodipodi-0.dtd"
   xmlns:inkscape="http://www.inkscape.org/namespaces/inkscape"
   id="svg8"
   version="1.1"
   viewBox="0 0 136.5541 31.56105"
   height="119.28586"
   width="516.10999"
   sodipodi:docname="quizpanda_title_plain.svg"
   inkscape:version="0.92.5 (2060ec1f9f, 2020-04-08)">
  <sodipodi:namedview
     pagecolor="#ffffff"
     bordercolor="#666666"
     borderopacity="1"
     objecttolerance="10"
     gridtolerance="10"
     guidetolerance="10"
     inkscape:pageopacity="0"
     inkscape:pageshadow="2"
     inkscape:window-width="1366"
     inkscape:window-height="703"
     id="namedview21"
     showgrid="false"
     fit-margin-top="0"
     fit-margin-left="0"
     fit-margin-right="0"
     fit-margin-bottom="0"
     inkscape:zoom="0.5982906"
     inkscape:cx="435.91997"
     inkscape:cy="59.642929"
     inkscape:window-x="0"
     inkscape:window-y="0"
     inkscape:window-maximized="1"
     inkscape:current-layer="svg8" />
  <defs
     id="defs2" />
  <metadata
     id="metadata5">
    <rdf:RDF>
      <cc:Work
         rdf:about="">
        <dc:format>image/svg+xml</dc:format>
        <dc:type
           rdf:resource="http://purl.org/dc/dcmitype/StillImage" />
        <dc:title></dc:title>
      </cc:Work>
    </rdf:RDF>
  </metadata>
  <g
     transform="translate(20.94163,-273.28197)"
     id="layer1">
    <flowRoot
       transform="matrix(0.26458333,0,0,0.26458333,0,281.125)"
       style="font-style:normal;font-weight:normal;font-size:40px;line-height:1.25;font-family:sans-serif;letter-spacing:0px;word-spacing:0px;fill:#000000;fill-opacity:1;stroke:none"
       id="flowRoot927"
       xml:space="preserve"><flowRegion
         id="flowRegion929"><rect
           y="16.058365"
           x="100.51018"
           height="44.446712"
           width="189.40359"
           id="rect931" /></flowRegion><flowPara
         id="flowPara933">QQuisdkfjkasdf</flowPara></flowRoot>    <g
       id="text937"
       style="font-style:normal;font-weight:normal;font-size:10.58333302px;line-height:1.25;font-family:sans-serif;letter-spacing:0px;word-spacing:0px;fill:#000000;fill-opacity:1;stroke:none;stroke-width:0.26458332"
       aria-label="Quiz Panda">
      <g
         transform="matrix(1.0825272,0,0,1.0825272,-3.963784,-23.855519)"
         id="g967">
        <path
           d="m 24.45604,296.4285 q -3.589867,0 -5.757333,-0.22014 -2.150533,-0.22013 -3.7084,-0.94826 -1.557867,-0.7112 -2.607733,-2.15054 -1.134533,-1.64253 -1.134533,-4.58893 0,-3.43747 1.693333,-5.1308 1.710266,-1.69333 4.7752,-1.69333 3.047999,0 4.758266,1.50706 1.710267,1.49014 1.710267,4.4704 0,1.28694 -0.423334,2.42147 -0.4064,1.1176 -1.4224,2.06587 l 0.08467,0.16933 h 2.032 z m -6.739466,-4.09787 q 1.151466,0 1.151466,-1.25307 v -5.11386 q 0,-1.25307 -1.151466,-1.25307 -1.151467,0 -1.151467,1.25307 v 5.11386 q 0,1.25307 1.151467,1.25307 z"
           style="font-style:normal;font-variant:normal;font-weight:normal;font-stretch:normal;font-size:16.93333244px;font-family:'Alfa Slab One';-inkscape-font-specification:'Alfa Slab One';fill:#868686;fill-opacity:0.99545456;stroke-width:0.26458332"
           id="path939"
           inkscape:connector-curvature="0" />
        <path
           d="m 36.173897,292.33063 v 2.77707 h -4.639733 v -1.3208 q -1.2192,1.55786 -3.048,1.55786 -1.405467,0 -2.116667,-0.88053 -0.694266,-0.88053 -0.694266,-2.42147 v -3.57293 h -0.745067 v -2.77707 h 4.639733 v 5.55414 q 0,0.5588 0.237067,0.82973 0.254,0.254 0.745066,0.254 0.491067,0 0.728134,-0.254 0.254,-0.27093 0.254,-0.82973 v -2.77707 h -0.9144 v -2.77707 h 4.809066 v 6.63787 z"
           style="font-style:normal;font-variant:normal;font-weight:normal;font-stretch:normal;font-size:16.93333244px;font-family:'Alfa Slab One';-inkscape-font-specification:'Alfa Slab One';fill:#868686;fill-opacity:0.99545456;stroke-width:0.26458332"
           id="path941"
           inkscape:connector-curvature="0" />
        <path
           d="m 37.460811,284.76143 v -2.82787 h 3.4544 v 2.82787 z m -0.8128,10.34627 v -2.77707 h 0.745067 v -3.8608 h -0.745067 v -2.77707 h 4.639733 v 6.63787 h 0.745067 v 2.77707 z"
           style="font-style:normal;font-variant:normal;font-weight:normal;font-stretch:normal;font-size:16.93333244px;font-family:'Alfa Slab One';-inkscape-font-specification:'Alfa Slab One';fill:#868686;fill-opacity:0.99545456;stroke-width:0.26458332"
           id="path943"
           inkscape:connector-curvature="0" />
        <path
           d="m 42.439191,295.1077 v -2.52307 l 4.131733,-4.1148 h -1.507066 v 0.6096 h -2.523067 v -3.38667 h 8.89 v 2.42147 l -4.030133,4.2164 h 1.6256 v -0.94827 h 2.556933 v 3.72534 z"
           style="font-style:normal;font-variant:normal;font-weight:normal;font-stretch:normal;font-size:16.93333244px;font-family:'Alfa Slab One';-inkscape-font-specification:'Alfa Slab One';fill:#868686;fill-opacity:0.99545456;stroke-width:0.26458332"
           id="path945"
           inkscape:connector-curvature="0" />
        <path
           d="m 57.238892,292.33063 h 0.846667 v -7.62 h -0.846667 v -2.77707 h 7.433733 q 2.1844,0 3.335867,0.94827 1.151466,0.93133 1.151466,3.03107 0,2.09973 -1.151466,3.048 -1.151467,0.93133 -3.335867,0.93133 h -1.845733 v 2.4384 h 1.6256 v 2.77707 h -7.2136 z m 6.163733,-4.84293 q 0.982134,0 0.982134,-1.08374 v -0.6096 q 0,-0.5588 -0.254,-0.8128 -0.237067,-0.27093 -0.728134,-0.27093 h -0.575733 v 2.77707 z"
           style="font-style:normal;font-variant:normal;font-weight:normal;font-stretch:normal;font-size:16.93333244px;font-family:'Alfa Slab One';-inkscape-font-specification:'Alfa Slab One';fill:#46e6bc;fill-opacity:1;stroke-width:0.26458332"
           id="path947"
           inkscape:connector-curvature="0" />
        <path
           d="m 77.118598,292.33063 v 2.77707 h -4.4704 v -1.15147 q -0.372533,0.54187 -1.049866,0.9652 -0.6604,0.42333 -1.6256,0.42333 -1.27,0 -1.998133,-0.67733 -0.728134,-0.67733 -0.728134,-1.91347 0,-3.2004 5.4356,-3.28506 -0.0508,-0.57574 -0.440267,-0.77894 -0.389466,-0.22013 -1.320799,-0.22013 -0.762,0 -1.642534,0.16933 -0.8636,0.1524 -1.591733,0.42334 v -3.11574 q 0.897467,-0.22013 1.947333,-0.3556 1.049867,-0.13546 2.048933,-0.13546 2.523067,0 3.6068,0.9144 1.083734,0.9144 1.083734,2.82786 v 3.13267 z m -4.4704,-1.18533 q -0.762,0 -1.185333,0.2032 -0.4064,0.2032 -0.4064,0.67733 0,0.28787 0.169334,0.47413 0.186266,0.16934 0.507999,0.16934 0.440267,0 0.677334,-0.37254 0.237066,-0.37253 0.237066,-1.04986 z"
           style="font-style:normal;font-variant:normal;font-weight:normal;font-stretch:normal;font-size:16.93333244px;font-family:'Alfa Slab One';-inkscape-font-specification:'Alfa Slab One';fill:#46e6bc;fill-opacity:1;stroke-width:0.26458332"
           id="path949"
           inkscape:connector-curvature="0" />
        <path
           d="m 88.904196,292.33063 v 2.77707 h -5.350933 v -2.77707 h 0.7112 v -2.77707 q 0,-0.5588 -0.237067,-0.8128 -0.237067,-0.27093 -0.7112,-0.27093 -1.016,0 -1.016,1.08373 v 2.77707 h 0.7112 v 2.77707 h -5.350933 v -2.77707 h 0.745067 v -3.8608 h -0.745067 v -2.77707 h 4.639733 v 1.3208 q 1.2192,-1.55786 3.048,-1.55786 1.405467,0 2.099733,0.88053 0.7112,0.88053 0.7112,2.42147 v 3.57293 z"
           style="font-style:normal;font-variant:normal;font-weight:normal;font-stretch:normal;font-size:16.93333244px;font-family:'Alfa Slab One';-inkscape-font-specification:'Alfa Slab One';fill:#46e6bc;fill-opacity:1;stroke-width:0.26458332"
           id="path951"
           inkscape:connector-curvature="0" />
        <path
           d="m 92.781913,295.34476 q -1.7272,0 -2.607733,-1.28693 -0.8636,-1.28693 -0.8636,-3.6576 0,-2.37067 0.8636,-3.6576 0.880533,-1.28693 2.607733,-1.28693 0.8636,0 1.524,0.42333 0.677333,0.42333 1.100667,0.9652 v -2.1336 h -0.999067 v -2.77707 h 4.893723 v 10.39707 h 0.745064 v 2.77707 h -4.63972 v -1.15147 q -0.423334,0.54187 -1.100667,0.9652 -0.6604,0.42333 -1.524,0.42333 z m 1.642533,-3.01413 q 0.491067,0 0.728134,-0.254 0.254,-0.27093 0.254,-0.82973 v -1.69334 q 0,-0.5588 -0.254,-0.8128 -0.237067,-0.27093 -0.728134,-0.27093 -0.491066,0 -0.745066,0.27093 -0.237067,0.254 -0.237067,0.8128 v 1.69334 q 0,0.5588 0.237067,0.82973 0.254,0.254 0.745066,0.254 z"
           style="font-style:normal;font-variant:normal;font-weight:normal;font-stretch:normal;font-size:16.93333244px;font-family:'Alfa Slab One';-inkscape-font-specification:'Alfa Slab One';fill:#46e6bc;fill-opacity:1;stroke-width:0.26458332"
           id="path953"
           inkscape:connector-curvature="0" />
        <path
           d="m 110.46028,292.33063 v 2.77707 h -4.4704 v -1.15147 q -0.37253,0.54187 -1.04987,0.9652 -0.6604,0.42333 -1.6256,0.42333 -1.27,0 -1.99813,-0.67733 -0.72813,-0.67733 -0.72813,-1.91347 0,-3.2004 5.4356,-3.28506 -0.0508,-0.57574 -0.44027,-0.77894 -0.38947,-0.22013 -1.3208,-0.22013 -0.762,0 -1.64253,0.16933 -0.8636,0.1524 -1.59174,0.42334 v -3.11574 q 0.89747,-0.22013 1.94734,-0.3556 1.04986,-0.13546 2.04893,-0.13546 2.52307,0 3.6068,0.9144 1.08373,0.9144 1.08373,2.82786 v 3.13267 z m -4.4704,-1.18533 q -0.762,0 -1.18533,0.2032 -0.4064,0.2032 -0.4064,0.67733 0,0.28787 0.16933,0.47413 0.18627,0.16934 0.508,0.16934 0.44027,0 0.67733,-0.37254 0.23707,-0.37253 0.23707,-1.04986 z"
           style="font-style:normal;font-variant:normal;font-weight:normal;font-stretch:normal;font-size:16.93333244px;font-family:'Alfa Slab One';-inkscape-font-specification:'Alfa Slab One';fill:#46e6bc;fill-opacity:1;stroke-width:0.26458332"
           id="path955"
           inkscape:connector-curvature="0" />
      </g>
    </g>
  </g>
  <g
     id="layer1-3"
     transform="matrix(0.15108489,0,0,0.15108489,-2.7445754,-13.227774)">
    <g
       transform="matrix(1.436738,0,0,1.436738,208.21722,75.152841)"
       id="g4855">
      <path
         id="path328"
         d="m -132.03115,78.640798 c -1.50086,-26.505344 3.64293,-46.94715 19.51068,-58.799299 14.648151,-10.9411883 40.353042,-13.1985493 60.278554,-9.674164 7.93666,1.403819 14.39422,4.062246 19.72952,6.9394 7.04562,3.799475 12.72127,10.650183 16.18394,20.067345 7.1875202,19.547347 6.5894302,48.024598 -2.32487,67.84008 -4.89298,10.87653 -12.42353,18.81332 -22.23891,22.00242 5.0104,8.44408 8.27196,13.00164 7.54561,15.7689 -0.89076,3.39364 -3.73708,5.94554 -6.20927,6.94901 -9.29382,3.77239 -19.89748,4.60734 -30.46872,4.19664 -5.180817,-0.20128 -6.68233,-1.39075 -8.190864,-4.54219 l -8.819894,-18.42539 c -26.857416,1.92889 -43.224696,-21.04536 -44.995776,-52.322752 z"
         style="fill:#4fe3c1;fill-opacity:1;stroke:none;stroke-width:0.26458332px;stroke-linecap:butt;stroke-linejoin:miter;stroke-opacity:1"
         inkscape:connector-curvature="0" />
      <path
         id="path330"
         d="m -111.31776,36.813115 c 0.55493,-5.907286 0.60328,-8.866902 3.54132,-12.76212 2.45823,-3.259079 5.97504,-1.904809 6.74856,-0.06682 1.054001,2.504469 1.356665,4.212955 0.0668,7.483546 -5.31216,1.208013 -6.38127,2.399552 -10.3567,5.345391 z"
         style="fill:#3b1c2c;fill-opacity:1;stroke:none;stroke-width:0.26458332px;stroke-linecap:butt;stroke-linejoin:miter;stroke-opacity:1"
         inkscape:connector-curvature="0" />
      <path
         id="path332"
         d="m -66.855206,36.109386 c -0.4066,-0.404633 -0.12655,-0.851976 -0.0576,-1.058652 2.73585,-8.200872 7.86554,-9.413058 11.49138,-9.78454 4.8052,-0.492312 12.12295,2.026202 12.37872,11.150297 0.22481,8.019708 -7.89133,11.251505 -10.53205,12.103871 -0.83545,0.269666 -1.31923,0.160974 -1.82305,-0.599222 -3.20692,-5.31196 -6.62072,-8.23963 -11.4574,-11.811754 z"
         style="fill:#3b1c2c;fill-opacity:1;stroke:none;stroke-width:0.26458332px;stroke-linecap:butt;stroke-linejoin:miter;stroke-opacity:1"
         inkscape:connector-curvature="0" />
      <path
         id="path334"
         d="m -107.46402,49.622035 c -3.51849,1.81541 -5.69236,4.57427 -5.12631,11.079427 0.0883,1.015286 0.65674,3.14892 2.1025,4.582961 0.6277,0.622613 3.44282,1.269955 3.85063,-2.787576 0.21861,-2.175088 0.26531,-4.015284 1.98437,-7.370534 2.32013,-4.528394 -0.21006,-6.846365 -2.81119,-5.504278 z"
         style="fill:#3b1c2c;fill-opacity:1;stroke:none;stroke-width:0.26458332px;stroke-linecap:butt;stroke-linejoin:miter;stroke-opacity:1"
         inkscape:connector-curvature="0" />
      <path
         id="path336"
         d="m -89.67552,54.157748 c -0.505932,2.705424 2.330881,8.592518 4.819196,10.606958 1.547773,1.253015 4.256438,2.123934 6.331101,0.236233 0.768357,-0.699115 3.231259,-3.818463 3.189174,-6.118489 -0.05474,-2.991657 -3.310265,-7.654219 -5.338913,-9.047804 -2.904961,-1.995571 -7.95873,-1.247976 -9.000558,4.323102 z"
         style="fill:#3b1c2c;fill-opacity:1;stroke:none;stroke-width:0.26458332px;stroke-linecap:butt;stroke-linejoin:miter;stroke-opacity:1"
         inkscape:connector-curvature="0" />
      <path
         id="path338"
         d="m -106.66963,72.929839 c 0.99086,0.200879 1.80176,0.985069 2.79356,1.181269 0.62972,0.12457 1.28512,0.0236 1.92568,-0.0182 1.05268,-0.0686 2.35003,-0.49747 3.141697,-0.38126 0.791667,0.11621 1.078903,0.16014 1.385153,0.58938 0.30625,0.42924 0.399507,0.81076 0.07558,1.42143 -0.323927,0.61067 -0.660218,0.69473 -1.120862,1.11378 -0.460644,0.41905 -1.37737,0.83795 -1.894568,1.48284 -0.48005,0.59856 -1.14366,1.10826 -1.87452,1.14181 -0.60194,0.0276 -1.15143,-0.42055 -1.62353,-0.79501 -0.53311,-0.42284 -0.80576,-1.10433 -1.29154,-1.58079 -0.29017,-0.28461 -0.66108,-0.47659 -0.95903,-0.75305 -0.43216,-0.40098 -0.95987,-0.76406 -1.19316,-1.30547 -0.2445,-0.56746 -0.481,-1.33639 -0.13558,-1.84872 0.15094,-0.223876 0.50438,-0.206169 0.77112,-0.248009 z"
         style="fill:#3b1c2c;fill-opacity:1;stroke:none;stroke-width:0.26458332px;stroke-linecap:butt;stroke-linejoin:miter;stroke-opacity:1"
         inkscape:connector-curvature="0" />
    </g>
  </g>
</svg>
